<?xml version="1.0" encoding="UTF-8" standalone="no"?>
<!DOCTYPE svg PUBLIC "-//W3C//DTD SVG 1.1//EN"
 "http://www.w3.org/Graphics/SVG/1.1/DTD/svg11.dtd">
<!-- Generated by graphviz version 2.44.0 (0)
 -->
<!-- Title: automata Pages: 1 -->
<svg width="757pt" height="182pt"
 viewBox="0.00 0.00 757.10 181.75" xmlns="http://www.w3.org/2000/svg" xmlns:xlink="http://www.w3.org/1999/xlink">
<g id="graph0" class="graph" transform="scale(1 1) rotate(0) translate(4 177.75)">
<title>automata</title>
<polygon fill="white" stroke="transparent" points="-4,4 -4,-177.75 753.1,-177.75 753.1,4 -4,4"/>
<!-- 10 -->
<g id="node1" class="node">
<title>10</title>
<ellipse fill="none" stroke="black" cx="722.35" cy="-26.75" rx="22.96" ry="22.96"/>
<ellipse fill="none" stroke="black" cx="722.35" cy="-26.75" rx="27" ry="27"/>
<text text-anchor="middle" x="722.35" y="-23.05" font-family="Times-Roman" font-size="14.00">10</text>
</g>
<!-- inicial -->
<g id="node2" class="node">
<title>inicial</title>
<ellipse fill="black" stroke="black" cx="1.8" cy="-26.75" rx="1.8" ry="1.8"/>
</g>
<!-- 0 -->
<g id="node3" class="node">
<title>0</title>
<ellipse fill="none" stroke="black" cx="58.6" cy="-26.75" rx="18" ry="18"/>
<text text-anchor="middle" x="58.6" y="-23.05" font-family="Times-Roman" font-size="14.00">0</text>
</g>
<!-- inicial&#45;&gt;0 -->
<g id="edge1" class="edge">
<title>inicial&#45;&gt;0</title>
<path fill="none" stroke="black" d="M3.75,-26.75C7.11,-26.75 18.87,-26.75 30.55,-26.75"/>
<polygon fill="black" stroke="black" points="30.58,-30.25 40.58,-26.75 30.58,-23.25 30.58,-30.25"/>
</g>
<!-- 1 -->
<g id="node4" class="node">
<title>1</title>
<ellipse fill="none" stroke="black" cx="140.6" cy="-71.75" rx="18" ry="18"/>
<text text-anchor="middle" x="140.6" y="-68.05" font-family="Times-Roman" font-size="14.00">1</text>
</g>
<!-- 0&#45;&gt;1 -->
<g id="edge2" class="edge">
<title>0&#45;&gt;1</title>
<path fill="none" stroke="black" d="M74.65,-35.21C86.16,-41.69 102.25,-50.74 115.54,-58.22"/>
<polygon fill="black" stroke="black" points="114.19,-61.47 124.62,-63.32 117.62,-55.37 114.19,-61.47"/>
<text text-anchor="middle" x="99.6" y="-55.55" font-family="Times-Roman" font-size="14.00">E</text>
</g>
<!-- 7 -->
<g id="node5" class="node">
<title>7</title>
<ellipse fill="none" stroke="black" cx="468.6" cy="-26.75" rx="18" ry="18"/>
<text text-anchor="middle" x="468.6" y="-23.05" font-family="Times-Roman" font-size="14.00">7</text>
</g>
<!-- 0&#45;&gt;7 -->
<g id="edge3" class="edge">
<title>0&#45;&gt;7</title>
<path fill="none" stroke="black" d="M75.96,-21.51C91.99,-16.84 117.22,-10.75 139.6,-10.75 139.6,-10.75 139.6,-10.75 387.6,-10.75 405.78,-10.75 425.85,-14.77 441.33,-18.78"/>
<polygon fill="black" stroke="black" points="440.67,-22.23 451.24,-21.51 442.53,-15.48 440.67,-22.23"/>
<text text-anchor="middle" x="263.6" y="-14.55" font-family="Times-Roman" font-size="14.00">E</text>
</g>
<!-- 2 -->
<g id="node6" class="node">
<title>2</title>
<ellipse fill="none" stroke="black" cx="222.6" cy="-155.75" rx="18" ry="18"/>
<text text-anchor="middle" x="222.6" y="-152.05" font-family="Times-Roman" font-size="14.00">2</text>
</g>
<!-- 1&#45;&gt;2 -->
<g id="edge4" class="edge">
<title>1&#45;&gt;2</title>
<path fill="none" stroke="black" d="M153.75,-84.51C166.75,-98.15 187.53,-119.98 202.68,-135.88"/>
<polygon fill="black" stroke="black" points="200.17,-138.32 209.6,-143.15 205.24,-133.49 200.17,-138.32"/>
<text text-anchor="middle" x="181.6" y="-122.55" font-family="Times-Roman" font-size="14.00">E</text>
</g>
<!-- 4 -->
<g id="node7" class="node">
<title>4</title>
<ellipse fill="none" stroke="black" cx="222.6" cy="-94.75" rx="18" ry="18"/>
<text text-anchor="middle" x="222.6" y="-91.05" font-family="Times-Roman" font-size="14.00">4</text>
</g>
<!-- 1&#45;&gt;4 -->
<g id="edge5" class="edge">
<title>1&#45;&gt;4</title>
<path fill="none" stroke="black" d="M158.18,-76.51C168.9,-79.6 183.1,-83.68 195.34,-87.2"/>
<polygon fill="black" stroke="black" points="194.47,-90.59 205.05,-89.99 196.4,-83.86 194.47,-90.59"/>
<text text-anchor="middle" x="181.6" y="-87.55" font-family="Times-Roman" font-size="14.00">E</text>
</g>
<!-- 8 -->
<g id="node11" class="node">
<title>8</title>
<ellipse fill="none" stroke="black" cx="549.6" cy="-26.75" rx="18" ry="18"/>
<text text-anchor="middle" x="549.6" y="-23.05" font-family="Times-Roman" font-size="14.00">8</text>
</g>
<!-- 7&#45;&gt;8 -->
<g id="edge13" class="edge">
<title>7&#45;&gt;8</title>
<path fill="none" stroke="black" d="M486.74,-26.75C496.89,-26.75 509.97,-26.75 521.48,-26.75"/>
<polygon fill="black" stroke="black" points="521.49,-30.25 531.49,-26.75 521.49,-23.25 521.49,-30.25"/>
<text text-anchor="middle" x="509.1" y="-30.55" font-family="Times-Roman" font-size="14.00">a</text>
</g>
<!-- 3 -->
<g id="node8" class="node">
<title>3</title>
<ellipse fill="none" stroke="black" cx="304.6" cy="-155.75" rx="18" ry="18"/>
<text text-anchor="middle" x="304.6" y="-152.05" font-family="Times-Roman" font-size="14.00">3</text>
</g>
<!-- 2&#45;&gt;3 -->
<g id="edge6" class="edge">
<title>2&#45;&gt;3</title>
<path fill="none" stroke="black" d="M240.96,-155.75C251.3,-155.75 264.66,-155.75 276.38,-155.75"/>
<polygon fill="black" stroke="black" points="276.55,-159.25 286.55,-155.75 276.55,-152.25 276.55,-159.25"/>
<text text-anchor="middle" x="263.6" y="-159.55" font-family="Times-Roman" font-size="14.00">a</text>
</g>
<!-- 5 -->
<g id="node10" class="node">
<title>5</title>
<ellipse fill="none" stroke="black" cx="304.6" cy="-94.75" rx="18" ry="18"/>
<text text-anchor="middle" x="304.6" y="-91.05" font-family="Times-Roman" font-size="14.00">5</text>
</g>
<!-- 4&#45;&gt;5 -->
<g id="edge8" class="edge">
<title>4&#45;&gt;5</title>
<path fill="none" stroke="black" d="M240.2,-99.35C245.98,-100.73 252.53,-102.06 258.6,-102.75 264.51,-103.42 270.82,-103 276.79,-102.09"/>
<polygon fill="black" stroke="black" points="277.9,-105.44 287,-100.03 276.51,-98.58 277.9,-105.44"/>
<text text-anchor="middle" x="263.6" y="-106.55" font-family="Times-Roman" font-size="14.00">b</text>
</g>
<!-- 4&#45;&gt;5 -->
<g id="edge9" class="edge">
<title>4&#45;&gt;5</title>
<path fill="none" stroke="black" d="M239.29,-87.78C247.88,-84.77 258.74,-82.24 268.6,-83.75 271.55,-84.2 274.59,-84.86 277.6,-85.63"/>
<polygon fill="black" stroke="black" points="276.88,-89.06 287.46,-88.55 278.87,-82.35 276.88,-89.06"/>
<text text-anchor="middle" x="263.6" y="-87.55" font-family="Times-Roman" font-size="14.00">b</text>
</g>
<!-- 6 -->
<g id="node9" class="node">
<title>6</title>
<ellipse fill="none" stroke="black" cx="386.6" cy="-68.75" rx="18" ry="18"/>
<text text-anchor="middle" x="386.6" y="-65.05" font-family="Times-Roman" font-size="14.00">6</text>
</g>
<!-- 3&#45;&gt;6 -->
<g id="edge7" class="edge">
<title>3&#45;&gt;6</title>
<path fill="none" stroke="black" d="M317.4,-142.91C330.4,-128.78 351.48,-105.85 366.77,-89.23"/>
<polygon fill="black" stroke="black" points="369.55,-91.37 373.75,-81.64 364.4,-86.63 369.55,-91.37"/>
<text text-anchor="middle" x="345.6" y="-120.55" font-family="Times-Roman" font-size="14.00">E</text>
</g>
<!-- 6&#45;&gt;1 -->
<g id="edge11" class="edge">
<title>6&#45;&gt;1</title>
<path fill="none" stroke="black" d="M368.35,-67.26C343.92,-65.35 297.85,-62.41 258.6,-63.75 227.72,-64.8 192.34,-67.42 168.64,-69.37"/>
<polygon fill="black" stroke="black" points="168.3,-65.89 158.63,-70.22 168.89,-72.86 168.3,-65.89"/>
<text text-anchor="middle" x="263.6" y="-67.55" font-family="Times-Roman" font-size="14.00">E</text>
</g>
<!-- 6&#45;&gt;7 -->
<g id="edge12" class="edge">
<title>6&#45;&gt;7</title>
<path fill="none" stroke="black" d="M403.02,-60.65C414.42,-54.67 430.17,-46.4 443.26,-39.53"/>
<polygon fill="black" stroke="black" points="445,-42.57 452.22,-34.82 441.74,-36.37 445,-42.57"/>
<text text-anchor="middle" x="427.6" y="-53.55" font-family="Times-Roman" font-size="14.00">E</text>
</g>
<!-- 5&#45;&gt;6 -->
<g id="edge10" class="edge">
<title>5&#45;&gt;6</title>
<path fill="none" stroke="black" d="M322.18,-89.36C332.97,-85.85 347.29,-81.2 359.59,-77.2"/>
<polygon fill="black" stroke="black" points="360.89,-80.46 369.32,-74.04 358.73,-73.8 360.89,-80.46"/>
<text text-anchor="middle" x="345.6" y="-86.55" font-family="Times-Roman" font-size="14.00">E</text>
</g>
<!-- 9 -->
<g id="node12" class="node">
<title>9</title>
<ellipse fill="none" stroke="black" cx="631.6" cy="-26.75" rx="18" ry="18"/>
<text text-anchor="middle" x="631.6" y="-23.05" font-family="Times-Roman" font-size="14.00">9</text>
</g>
<!-- 8&#45;&gt;9 -->
<g id="edge14" class="edge">
<title>8&#45;&gt;9</title>
<path fill="none" stroke="black" d="M567.96,-26.75C578.3,-26.75 591.66,-26.75 603.38,-26.75"/>
<polygon fill="black" stroke="black" points="603.55,-30.25 613.55,-26.75 603.55,-23.25 603.55,-30.25"/>
<text text-anchor="middle" x="590.6" y="-30.55" font-family="Times-Roman" font-size="14.00">b</text>
</g>
<!-- 9&#45;&gt;10 -->
<g id="edge15" class="edge">
<title>9&#45;&gt;10</title>
<path fill="none" stroke="black" d="M649.71,-26.75C659.86,-26.75 673.13,-26.75 685.47,-26.75"/>
<polygon fill="black" stroke="black" points="685.54,-30.25 695.54,-26.75 685.54,-23.25 685.54,-30.25"/>
<text text-anchor="middle" x="672.6" y="-30.55" font-family="Times-Roman" font-size="14.00">b</text>
</g>
</g>
</svg>
