<?xml version="1.0" encoding="UTF-8" standalone="no"?>
<!DOCTYPE svg PUBLIC "-//W3C//DTD SVG 1.1//EN"
 "http://www.w3.org/Graphics/SVG/1.1/DTD/svg11.dtd">
<!-- Generated by graphviz version 2.44.0 (0)
 -->
<!-- Title: automata Pages: 1 -->
<svg width="339pt" height="165pt"
 viewBox="0.00 0.00 338.60 165.26" xmlns="http://www.w3.org/2000/svg" xmlns:xlink="http://www.w3.org/1999/xlink">
<g id="graph0" class="graph" transform="scale(1 1) rotate(0) translate(4 161.26)">
<title>automata</title>
<polygon fill="white" stroke="transparent" points="-4,4 -4,-161.26 334.6,-161.26 334.6,4 -4,4"/>
<!-- 4 -->
<g id="node1" class="node">
<title>4</title>
<ellipse fill="none" stroke="black" cx="62.6" cy="-135.26" rx="18" ry="18"/>
<ellipse fill="none" stroke="black" cx="62.6" cy="-135.26" rx="22" ry="22"/>
<text text-anchor="middle" x="62.6" y="-131.56" font-family="Times-Roman" font-size="14.00">4</text>
</g>
<!-- 1 -->
<g id="node4" class="node">
<title>1</title>
<ellipse fill="none" stroke="black" cx="230.6" cy="-74.26" rx="18" ry="18"/>
<text text-anchor="middle" x="230.6" y="-70.56" font-family="Times-Roman" font-size="14.00">1</text>
</g>
<!-- 4&#45;&gt;1 -->
<g id="edge10" class="edge">
<title>4&#45;&gt;1</title>
<path fill="none" stroke="black" d="M84.58,-131.3C105.73,-126.95 139.08,-119.11 166.6,-108.26 180.28,-102.87 194.78,-95.19 206.42,-88.5"/>
<polygon fill="black" stroke="black" points="208.22,-91.5 215.06,-83.4 204.67,-85.47 208.22,-91.5"/>
<text text-anchor="middle" x="148.6" y="-123.06" font-family="Times-Roman" font-size="14.00">a</text>
</g>
<!-- 2 -->
<g id="node5" class="node">
<title>2</title>
<ellipse fill="none" stroke="black" cx="148.6" cy="-48.26" rx="18" ry="18"/>
<text text-anchor="middle" x="148.6" y="-44.56" font-family="Times-Roman" font-size="14.00">2</text>
</g>
<!-- 4&#45;&gt;2 -->
<g id="edge11" class="edge">
<title>4&#45;&gt;2</title>
<path fill="none" stroke="black" d="M78.62,-119.71C92.44,-105.39 113.03,-84.07 128.11,-68.44"/>
<polygon fill="black" stroke="black" points="131.01,-70.49 135.44,-60.86 125.97,-65.62 131.01,-70.49"/>
<text text-anchor="middle" x="107.6" y="-98.06" font-family="Times-Roman" font-size="14.00">b</text>
</g>
<!-- inicial -->
<g id="node2" class="node">
<title>inicial</title>
<ellipse fill="black" stroke="black" cx="1.8" cy="-18.26" rx="1.8" ry="1.8"/>
</g>
<!-- 0 -->
<g id="node3" class="node">
<title>0</title>
<ellipse fill="none" stroke="black" cx="62.6" cy="-18.26" rx="18" ry="18"/>
<text text-anchor="middle" x="62.6" y="-14.56" font-family="Times-Roman" font-size="14.00">0</text>
</g>
<!-- inicial&#45;&gt;0 -->
<g id="edge1" class="edge">
<title>inicial&#45;&gt;0</title>
<path fill="none" stroke="black" d="M3.82,-18.26C7.6,-18.26 21.25,-18.26 34.34,-18.26"/>
<polygon fill="black" stroke="black" points="34.51,-21.76 44.51,-18.26 34.51,-14.76 34.51,-21.76"/>
</g>
<!-- 0&#45;&gt;1 -->
<g id="edge2" class="edge">
<title>0&#45;&gt;1</title>
<path fill="none" stroke="black" d="M79.34,-11.63C100.2,-3.89 137.73,6.35 166.6,-6.26 187.07,-15.2 203.86,-34.43 214.94,-50.16"/>
<polygon fill="black" stroke="black" points="212.33,-52.55 220.79,-58.92 218.15,-48.66 212.33,-52.55"/>
<text text-anchor="middle" x="148.6" y="-10.06" font-family="Times-Roman" font-size="14.00">a</text>
</g>
<!-- 0&#45;&gt;2 -->
<g id="edge3" class="edge">
<title>0&#45;&gt;2</title>
<path fill="none" stroke="black" d="M79.8,-24.05C91.65,-28.28 107.98,-34.11 121.64,-38.99"/>
<polygon fill="black" stroke="black" points="120.86,-42.43 131.45,-42.5 123.21,-35.84 120.86,-42.43"/>
<text text-anchor="middle" x="107.6" y="-38.06" font-family="Times-Roman" font-size="14.00">b</text>
</g>
<!-- 1&#45;&gt;1 -->
<g id="edge4" class="edge">
<title>1&#45;&gt;1</title>
<path fill="none" stroke="black" d="M223.57,-90.93C222.01,-100.89 224.35,-110.26 230.6,-110.26 234.6,-110.26 237,-106.41 237.8,-101.03"/>
<polygon fill="black" stroke="black" points="241.3,-100.87 237.63,-90.93 234.3,-100.98 241.3,-100.87"/>
<text text-anchor="middle" x="230.6" y="-114.06" font-family="Times-Roman" font-size="14.00">a</text>
</g>
<!-- 3 -->
<g id="node6" class="node">
<title>3</title>
<ellipse fill="none" stroke="black" cx="312.6" cy="-112.26" rx="18" ry="18"/>
<text text-anchor="middle" x="312.6" y="-108.56" font-family="Times-Roman" font-size="14.00">3</text>
</g>
<!-- 1&#45;&gt;3 -->
<g id="edge5" class="edge">
<title>1&#45;&gt;3</title>
<path fill="none" stroke="black" d="M247.41,-81.77C258.65,-87.11 273.99,-94.4 286.85,-100.51"/>
<polygon fill="black" stroke="black" points="285.57,-103.77 296.1,-104.9 288.57,-97.45 285.57,-103.77"/>
<text text-anchor="middle" x="271.6" y="-99.06" font-family="Times-Roman" font-size="14.00">b</text>
</g>
<!-- 2&#45;&gt;1 -->
<g id="edge6" class="edge">
<title>2&#45;&gt;1</title>
<path fill="none" stroke="black" d="M166.18,-53.65C176.97,-57.16 191.29,-61.81 203.59,-65.81"/>
<polygon fill="black" stroke="black" points="202.73,-69.21 213.32,-68.97 204.89,-62.55 202.73,-69.21"/>
<text text-anchor="middle" x="189.6" y="-66.06" font-family="Times-Roman" font-size="14.00">a</text>
</g>
<!-- 2&#45;&gt;2 -->
<g id="edge7" class="edge">
<title>2&#45;&gt;2</title>
<path fill="none" stroke="black" d="M141.57,-64.93C140.01,-74.89 142.35,-84.26 148.6,-84.26 152.6,-84.26 155,-80.41 155.8,-75.03"/>
<polygon fill="black" stroke="black" points="159.3,-74.87 155.63,-64.93 152.3,-74.98 159.3,-74.87"/>
<text text-anchor="middle" x="148.6" y="-88.06" font-family="Times-Roman" font-size="14.00">b</text>
</g>
<!-- 3&#45;&gt;4 -->
<g id="edge9" class="edge">
<title>3&#45;&gt;4</title>
<path fill="none" stroke="black" d="M295.9,-119.17C283.36,-124.33 265.2,-131.03 248.6,-134.26 189.21,-145.83 173.09,-139.14 112.6,-140.26 108.16,-140.34 107.04,-140.54 102.6,-140.26 100.04,-140.1 97.38,-139.87 94.73,-139.61"/>
<polygon fill="black" stroke="black" points="94.94,-136.11 84.6,-138.45 94.14,-143.07 94.94,-136.11"/>
<text text-anchor="middle" x="189.6" y="-144.06" font-family="Times-Roman" font-size="14.00">b</text>
</g>
<!-- 3&#45;&gt;1 -->
<g id="edge8" class="edge">
<title>3&#45;&gt;1</title>
<path fill="none" stroke="black" d="M303.09,-96.78C297.04,-87.5 287.99,-76.51 276.6,-71.26 270.95,-68.66 264.48,-67.96 258.23,-68.23"/>
<polygon fill="black" stroke="black" points="257.63,-64.78 248.12,-69.45 258.47,-71.73 257.63,-64.78"/>
<text text-anchor="middle" x="271.6" y="-75.06" font-family="Times-Roman" font-size="14.00">a</text>
</g>
</g>
</svg>
